<?xml version="1.0" standalone="no"?>
<!DOCTYPE svg PUBLIC "-//W3C//DTD SVG 20010904//EN"
 "http://www.w3.org/TR/2001/REC-SVG-20010904/DTD/svg10.dtd">
<svg version="1.0" xmlns="http://www.w3.org/2000/svg"
 width="294.000000pt" height="596.000000pt" viewBox="0 0 294.000000 596.000000"
 preserveAspectRatio="xMidYMid meet">
<metadata>
Created by potrace 1.12, written by Peter Selinger 2001-2015
</metadata>
<g transform="translate(0.000000,596.000000) scale(0.100000,-0.100000)"
fill="#000000" stroke="none">
<path d="M1315 5945 c-362 -67 -640 -339 -738 -722 l-22 -88 0 -1360 0 -1360
23 -89 c102 -402 406 -679 796 -726 450 -54 868 253 988 726 l23 89 0 1360 0
1360 -22 88 c-98 383 -380 657 -743 723 -93 17 -213 16 -305 -1z"/>
<path d="M13 3173 c-19 -7 -18 -721 1 -863 64 -478 354 -874 804 -1099 112
-56 248 -97 460 -137 l22 -4 0 -365 0 -365 -410 0 -410 0 0 -170 0 -170 990 0
990 0 0 170 0 170 -410 0 -410 0 0 365 0 365 23 4 c272 52 405 98 582 204 259
154 484 417 591 688 90 229 104 340 104 825 0 335 -2 378 -16 383 -31 12 -299
7 -312 -6 -9 -9 -12 -111 -12 -399 0 -484 -10 -548 -115 -759 -74 -148 -168
-262 -300 -365 -419 -326 -1011 -326 -1430 0 -132 103 -226 217 -300 365 -105
211 -115 275 -115 759 0 288 -3 390 -12 399 -12 12 -288 17 -315 5z"/>
</g>
</svg>
